<svg xmlns="http://www.w3.org/2000/svg" viewBox="0 0 512 512">
  <defs>
    <linearGradient id="bg" x1="0%" y1="0%" x2="100%" y2="100%">
      <stop offset="0%" style="stop-color:#8b5cf6"/>
      <stop offset="100%" style="stop-color:#6d28d9"/>
    </linearGradient>
  </defs>
  <rect width="512" height="512" rx="96" fill="url(#bg)"/>
  <g fill="none" stroke="white" stroke-width="24" stroke-linecap="round" stroke-linejoin="round">
    <!-- Brain icon -->
    <path d="M256 120c-50 0-90 40-90 90 0 30 15 57 38 73"/>
    <path d="M256 120c50 0 90 40 90 90 0 30-15 57-38 73"/>
    <path d="M204 283c-25 15-42 43-42 75 0 48 39 87 94 87s94-39 94-87c0-32-17-60-42-75"/>
    <circle cx="220" cy="220" r="15" fill="white"/>
    <circle cx="292" cy="220" r="15" fill="white"/>
    <path d="M230 280c10 15 42 15 52 0"/>
    <!-- Spark/thought lines -->
    <path d="M340 140l30-30" stroke-width="16"/>
    <path d="M360 180l35-10" stroke-width="16"/>
    <path d="M172 140l-30-30" stroke-width="16"/>
    <path d="M152 180l-35-10" stroke-width="16"/>
  </g>
</svg>
