<svg xmlns="http://www.w3.org/2000/svg" viewBox="0 0 100 100">
  <defs>
    <linearGradient id="grad" x1="0%" y1="0%" x2="100%" y2="100%">
      <stop offset="0%" style="stop-color:#8b5cf6"/>
      <stop offset="100%" style="stop-color:#7c3aed"/>
    </linearGradient>
  </defs>
  <rect width="100" height="100" rx="20" fill="#0f0f0f"/>
  <g fill="url(#grad)">
    <!-- Brain icon simplified -->
    <path d="M50 20c-16.5 0-30 13.5-30 30s13.5 30 30 30 30-13.5 30-30-13.5-30-30-30zm0 52c-12.1 0-22-9.9-22-22s9.9-22 22-22 22 9.9 22 22-9.9 22-22 22z"/>
    <circle cx="42" cy="45" r="6"/>
    <circle cx="58" cy="45" r="6"/>
    <path d="M50 55c-5.5 0-10 2.2-10 5s4.5 5 10 5 10-2.2 10-5-4.5-5-10-5z"/>
    <!-- Spark -->
    <path d="M72 25l3-8 3 8 8 3-8 3-3 8-3-8-8-3z" fill="#fbbf24"/>
  </g>
</svg>
